<svg xmlns="http://www.w3.org/2000/svg" width="1151.058" height="874.993" viewBox="0 0 1151.058 874.993">
  <g id="Path_2772" data-name="Path 2772" transform="translate(0 -525.007)" fill="#f7f9fc">
    <path d="M 700.0001220703125 1300 C 369.158935546875 1300 100.000114440918 1030.841186523438 100.000114440918 700 C 100.000114440918 681.9068603515625 102.9950103759766 653.7814331054688 106.9707946777344 625.0072021484375 L 1051.057495117188 625.0072021484375 L 1051.057495117188 1182.372314453125 C 950.6697387695313 1263.557983398438 841.2938842773438 1300 700.0001220703125 1300 Z" stroke="none"/>
    <path d="M 200.6176147460938 725.00732421875 C 213.68359375 989.1434936523438 432.6790771484375 1200 700 1200 C 800.7093505859375 1200 879.0855712890625 1179.176879882813 951.057373046875 1131.816528320313 L 951.057373046875 725.00732421875 L 200.6176147460938 725.00732421875 M 22.0513916015625 525.00732421875 L 1151.057373046875 525.00732421875 L 1151.057373046875 1228.02685546875 C 1151.057373046875 1228.02685546875 1141.374389648438 1236.847900390625 1136.531372070313 1241.093627929688 C 1013.720703125 1348.75634765625 876.677001953125 1400 700 1400 C 313.4006958007813 1400 0 1086.599243164063 0 699.9998779296875 C 0 639.6903076171875 22.0513916015625 525.00732421875 22.0513916015625 525.00732421875 Z" stroke="none" fill="#f7f9fc"/>
  </g>
</svg>
